<svg viewBox="0 0 24.00 24.00" xmlns="http://www.w3.org/2000/svg" fill="#ffffff" stroke="#ffffff" stroke-width="0.00024000000000000003"><g id="SVGRepo_bgCarrier" stroke-width="0"></g><g id="SVGRepo_tracerCarrier" stroke-linecap="round" stroke-linejoin="round"></g><g id="SVGRepo_iconCarrier"><path d="M9.5 2h-6A1.502 1.502 0 0 0 2 3.5v6A1.502 1.502 0 0 0 3.5 11h6A1.502 1.502 0 0 0 11 9.5v-6A1.502 1.502 0 0 0 9.5 2zm.5 7.5a.501.501 0 0 1-.5.5h-6a.501.501 0 0 1-.5-.5v-6a.501.501 0 0 1 .5-.5h6a.501.501 0 0 1 .5.5zM20.5 2h-6A1.502 1.502 0 0 0 13 3.5v6a1.502 1.502 0 0 0 1.5 1.5h6A1.502 1.502 0 0 0 22 9.5v-6A1.502 1.502 0 0 0 20.5 2zm.5 7.5a.501.501 0 0 1-.5.5h-6a.501.501 0 0 1-.5-.5v-6a.501.501 0 0 1 .5-.5h6a.501.501 0 0 1 .5.5zM9.5 13h-6A1.502 1.502 0 0 0 2 14.5v6A1.502 1.502 0 0 0 3.5 22h6a1.502 1.502 0 0 0 1.5-1.5v-6A1.502 1.502 0 0 0 9.5 13zm.5 7.5a.501.501 0 0 1-.5.5h-6a.501.501 0 0 1-.5-.5v-6a.501.501 0 0 1 .5-.5h6a.501.501 0 0 1 .5.5zM20.5 13h-6a1.502 1.502 0 0 0-1.5 1.5v6a1.502 1.502 0 0 0 1.5 1.5h6a1.502 1.502 0 0 0 1.5-1.5v-6a1.502 1.502 0 0 0-1.5-1.5zm.5 7.5a.501.501 0 0 1-.5.5h-6a.501.501 0 0 1-.5-.5v-6a.501.501 0 0 1 .5-.5h6a.501.501 0 0 1 .5.5z"></path><path fill="none" d="M0 0h24v24H0z"></path></g></svg>